Coordinates
version=1
nRows=16
nColumns=42
inDegrees=yes

Units are S.I. units (second, meters, Newtons, ...)
If the header above contains a line with 'inDegrees', this indicates whether rotational values are in degrees (yes) or radians (no).

endheader
time	pelvis_tilt	pelvis_list	pelvis_rotation	pelvis_tx	pelvis_ty	pelvis_tz	hip_flexion_r	hip_adduction_r	hip_rotation_r	knee_angle_r	knee_adduction_r	knee_angle_r_beta	ankle_angle_r	subtalar_angle_r	mtp_angle_r	hip_flexion_l	hip_adduction_l	hip_rotation_l	knee_angle_l	knee_adduction_l	knee_angle_l_beta	ankle_angle_l	subtalar_angle_l	mtp_angle_l	lumbar_extension	lumbar_bending	lumbar_rotation	arm_flex_r	arm_add_r	arm_rot_r	elbow_flex_r	pro_sup_r	wrist_flex_r	wrist_dev_r	arm_flex_l	arm_add_l	arm_rot_l	elbow_flex_l	pro_sup_l	wrist_flex_l	wrist_dev_l
      1.31000000	      2.19440635	     -1.29455179	     -2.35841157	     -1.84314079	      0.84981730	      0.14918127	      3.67328465	      8.18848724	    -39.01170189	     26.59056262	    -22.52581569	      0.46409287	     31.28895841	     36.41736021	     -7.52460568	     34.81962501	     -0.17717767	    -13.63870209	     32.52752090	    -10.05799782	      0.56771234	      8.00785412	     -6.06514717	     -7.52460568	    -22.19669219	      0.59357068	      6.74727394	     23.50528025	    -19.54261470	     15.65131421	     47.78242889	     90.00000001	      0.00000000	      0.00000000	     -4.93504747	    -11.56027160	      4.68518083	     28.52476452	     90.00000001	      0.00000000	      0.00000000
      1.32000000	      2.26826363	     -1.55414467	     -2.49814880	     -1.83061520	      0.84788553	      0.14874596	      2.65314969	      8.40369211	    -39.05415437	     26.65873517	    -22.65593809	      0.46528270	     31.66109518	     36.39852106	     -7.52230698	     34.88167279	     -0.38226163	    -15.18539802	     29.19260392	    -10.50562424	      0.50950706	      8.50642251	     -2.06416692	     -7.52230698	    -22.21809368	      0.88913983	      6.86440668	     24.20292500	    -19.62321756	     15.87366965	     47.97887503	     90.00000001	      0.00000000	      0.00000000	     -5.78963971	    -11.14983279	      4.01623392	     28.41136111	     90.00000001	      0.00000000	      0.00000000
      1.33000000	      2.36008896	     -1.77861990	     -2.64126071	     -1.81803555	      0.84596956	      0.14826074	      1.67425873	      8.55377850	    -39.08542367	     26.85754077	    -22.84828810	      0.46875252	     32.00962817	     36.36319627	     -7.52038538	     34.96654216	     -0.61148866	    -16.76564457	     26.39740411	    -10.76172820	      0.46072162	      8.91559559	      2.00413742	     -7.52038538	    -22.27880076	      1.13439959	      6.96591892	     24.89038800	    -19.65050458	     16.00796069	     48.12123205	     90.00000001	      0.00000000	      0.00000000	     -6.56225912	    -10.78660025	      3.63358537	     28.31613543	     90.00000001	      0.00000000	      0.00000000
      1.34000000	      2.35279113	     -1.93640016	     -2.72310538	     -1.80543601	      0.84399814	      0.14758476	      0.84274375	      8.59939311	    -39.12012420	     27.13501777	    -23.03058605	      0.47359540	     32.15640222	     36.30196444	     -7.52006744	     35.00924307	     -0.51134869	    -17.02600163	     23.98886183	    -10.71582829	      0.41868462	      8.53926324	      3.30953698	     -7.52006744	    -22.22075017	      1.31354630	      7.00460369	     25.38945575	    -19.66525203	     15.96953137	     48.31298600	     90.00000001	      0.00000000	      0.00000000	     -7.24011610	    -10.55184911	      3.61242981	     28.09461490	     90.00000001	      0.00000000	      0.00000000
      1.35000000	      2.48937767	     -2.14016006	     -2.86592841	     -1.79244371	      0.84211546	      0.14700874	     -0.15863806	      8.67209222	    -39.12539994	     27.44762774	    -23.25269413	      0.47905148	     32.39932149	     36.30254836	     -7.51842644	     35.28299822	     -0.87245316	    -19.36487205	     22.61399910	    -11.10117251	      0.39468874	      9.48725339	      9.01386298	     -7.51842644	    -22.27656605	      1.51611043	      7.08704048	     25.93009383	    -19.62612877	     15.99203509	     48.32283862	     90.00000001	      0.00000000	      0.00000000	     -7.90963154	    -10.22865996	      3.40549957	     27.97676299	     90.00000001	      0.00000000	      0.00000000
      1.36000000	      2.51614263	     -2.21092387	     -2.94816434	     -1.77949720	      0.84025445	      0.14625179	     -0.94129095	      8.54453075	    -39.13592535	     27.93995010	    -23.48977687	      0.48764412	     32.33168572	     36.30152151	     -7.51817027	     35.35252438	     -0.68644543	    -19.37918648	     21.55697637	    -11.08234703	      0.37624021	      9.28187072	      9.83525083	     -7.51817027	    -22.22554467	      1.56774430	      7.08563641	     26.22557036	    -19.58568673	     15.93705636	     48.50238406	     90.00000001	      0.00000000	      0.00000000	     -8.43108872	    -10.02919174	      3.42261189	     27.75837317	     90.00000001	      0.00000000	      0.00000000
      1.37000000	      2.54940430	     -2.32038162	     -3.03499963	     -1.76635619	      0.83843517	      0.14552021	     -1.71893579	      8.50195768	    -39.12524801	     28.39415762	    -23.82908189	      0.49557154	     32.26215780	     36.32692135	     -7.51808731	     35.53221734	     -0.60708810	    -19.31569225	     21.38369510	    -11.11227956	      0.37321589	      9.20610063	     10.17733928	     -7.51808731	    -22.16185021	      1.64653474	      7.14923329	     26.42494053	    -19.61429203	     15.86822399	     48.59368623	     90.00000001	      0.00000000	      0.00000000	     -8.87489379	     -9.80939388	      3.45609020	     27.58327630	     90.00000001	      0.00000000	      0.00000000
      1.38000000	      2.71989150	     -2.27635329	     -3.15383321	     -1.75279298	      0.83687502	      0.14467588	     -2.60428799	      8.11137586	    -39.10507325	     29.12287546	    -24.04973691	      0.50829006	     32.04636666	     36.33074692	     -7.51651089	     35.61108446	     -0.47635726	    -20.32271550	     21.65178794	    -11.56779479	      0.37789499	      9.61185663	     13.45554612	     -7.51651089	    -22.20444179	      1.52342143	      7.19358999	     26.43661172	    -19.44071306	     15.23706935	     48.78670866	     90.00000001	      0.00000000	      0.00000000	     -9.17065640	     -9.67880284	      3.64243944	     27.26361385	     90.00000001	      0.00000000	      0.00000000
      1.39000000	      2.83312195	     -2.19926260	     -3.24220377	     -1.73916770	      0.83537386	      0.14376232	     -3.36123788	      7.71253329	    -39.07279903	     29.88948383	    -24.36457539	      0.52166990	     31.67814238	     36.40267190	     -7.51632846	     35.60616181	     -0.11106504	    -19.88708617	     22.40472438	    -11.83571778	      0.39103621	      9.46276357	     13.47651719	     -7.51632846	    -22.17891292	      1.35803688	      7.17654166	     26.41446496	    -19.41864814	     15.15525200	     48.85703109	     90.00000001	      0.00000000	      0.00000000	     -9.46281056	     -9.57847856	      3.69170309	     27.11836869	     90.00000001	      0.00000000	      0.00000000
      1.40000000	      2.90995031	     -2.02707213	     -3.33826540	     -1.72535138	      0.83395543	      0.14280052	     -3.97534738	      7.17621801	    -39.02459805	     30.84258109	    -24.75300623	      0.53830459	     30.98043268	     36.40102329	     -7.51601882	     35.63033873	      0.35678599	    -19.36620030	     23.57777032	    -12.17196871	      0.41150972	      9.17918859	     12.96466440	     -7.51601882	    -22.08796736	      1.06853783	      7.18768071	     26.19140271	    -19.37971527	     14.89459092	     48.99623388	     90.00000001	      0.00000000	      0.00000000	     -9.64844627	     -9.51576944	      3.80560751	     26.92560241	     90.00000001	      0.00000000	      0.00000000
      1.41000000	      3.10713844	     -1.79560296	     -3.35997401	     -1.71122544	      0.83293069	      0.14171800	     -4.76474993	      6.61145638	    -38.99062902	     31.66716767	    -25.14824924	      0.55269634	     30.48496512	     36.43950502	     -7.51593274	     35.44779708	      0.93732303	    -18.73170048	     24.94002953	    -12.54240042	      0.43528563	      8.88130385	     12.83934042	     -7.51593274	    -22.10425986	      0.70420938	      7.12869038	     25.91544271	    -19.38255862	     14.78697159	     48.97912024	     90.00000001	      0.00000000	      0.00000000	     -9.71442825	     -9.54543165	      3.84032622	     26.82534003	     90.00000001	      0.00000000	      0.00000000
      1.42000000	      3.04466192	     -1.44497688	     -3.38750076	     -1.69738269	      0.83184260	      0.14055339	     -4.97752696	      5.85224257	    -38.89251252	     33.01012583	    -25.60216666	      0.57613538	     28.75726890	     36.04358806	     -7.51485367	     35.42815521	      1.78984281	    -16.55286324	     26.61586633	    -12.39027077	      0.46453450	      7.37927871	      8.07497452	     -7.51485367	    -21.88433541	      0.20238968	      7.13570283	     25.07835407	    -19.09957061	     13.20991613	     49.61820685	     90.00000001	      0.00000000	      0.00000000	     -9.55140635	     -9.62885542	      4.47624657	     26.31450658	     90.00000001	      0.00000000	      0.00000000
      1.43000000	      3.11350722	     -1.01593527	     -3.44104657	     -1.68314237	      0.83115013	      0.13931634	     -5.30431113	      4.94175975	    -38.82356192	     34.41545013	    -26.03511075	      0.60066292	     27.33038447	     35.89983228	     -7.51456171	     35.40985412	      2.46945962	    -16.08676520	     28.42748621	    -12.65439738	      0.49615323	      6.99231655	      7.11095918	     -7.51456171	    -21.75592912	     -0.40060546	      7.03972668	     24.55883552	    -19.00860567	     12.98280947	     49.47724272	     90.00000001	      0.00000000	      0.00000000	     -9.51417336	     -9.70814174	      4.63273059	     26.26742541	     90.00000001	      0.00000000	      0.00000000
      1.44000000	      3.15089166	     -0.50698149	     -3.33138719	     -1.66909653	      0.83088361	      0.13788584	     -5.46138316	      4.03443764	    -38.71528954	     35.95503251	    -26.49303735	      0.62753370	     25.20588845	     35.03115777	     -7.51346535	     35.19737145	      3.45822701	    -14.00370270	     30.21196558	    -12.23617313	      0.52729827	      5.68510196	      2.76547577	     -7.51346535	    -21.65401835	     -1.06525926	      6.85491418	     23.74036912	    -18.68165362	     11.76053934	     49.65570159	     90.00000001	      0.00000000	      0.00000000	     -9.20366664	     -9.92132597	      5.34227140	     25.98106875	     90.00000001	      0.00000000	      0.00000000
      1.45000000	      3.21467728	      0.04434485	     -3.23371661	     -1.65496683	      0.83091809	      0.13644610	     -5.49685722	      3.04893545	    -38.63461280	     37.70051052	    -26.99010943	      0.65799804	     22.67348802	     34.06784627	     -7.51251617	     35.04661620	      4.31102229	    -13.00188072	     32.04644081	    -12.03058348	      0.55931591	      5.21744925	      0.45155812	     -7.51251617	    -21.56763277	     -1.78035021	      6.65555078	     22.96779351	    -18.48063329	     11.12631855	     49.56015387	     90.00000001	      0.00000000	      0.00000000	     -8.86560678	    -10.16736094	      5.89188083	     25.88288274	     90.00000001	      0.00000000	      0.00000000
      1.46000000	      3.26450632	      0.61781469	     -3.09304890	     -1.64099649	      0.83127577	      0.13495009	     -5.31275552	      2.07013633	    -38.53804879	     39.69423997	    -27.54532075	      0.69279518	     19.66382007	     32.44926490	     -7.51142029	     34.83640568	      5.17349788	    -12.01661351	     33.79190754	    -11.69372394	      0.58978005	      4.98879646	     -1.94330498	     -7.51142029	    -21.50224340	     -2.50995422	      6.43735916	     22.16453564	    -18.28156946	     10.43383047	     49.44981936	     90.00000001	      0.00000000	      0.00000000	     -8.38674525	    -10.46703400	      6.51484815	     25.78132711	     90.00000001	      0.00000000	      0.00000000
